<svg width="24" height="24" xmlns="http://www.w3.org/2000/svg">

 <g>
  <title>background</title>
  <rect fill="none" id="canvas_background" height="402" width="582" y="-1" x="-1"/>
 </g>
 <g>
  <title>Layer 1</title>
  <path id="svg_1" fill="#ffffff" d="m23.8999,7.20044l-3,-4c-0.09424,-0.12598 -0.24267,-0.2002 -0.3999,-0.2002l-17,0c-0.15723,0 -0.30566,0.07422 -0.3999,0.2002l-3,4c-0.14258,0.18945 -0.13184,0.45361 0.02539,0.63086l11.5,12.99951c0.09472,0.10742 0.23144,0.16895 0.37451,0.16895s0.27979,-0.06153 0.37451,-0.16895l11.5,-12.99951c0.15723,-0.17725 0.16797,-0.44141 0.02539,-0.63086zm-20.80908,-0.98731c-0.63629,0.90723 -0.9231,1.67286 -1.01538,2.31348l-0.93091,-1.05224l2.60547,-3.47413l2.40497,0c-1.211,0.47626 -2.33789,1.17719 -3.06415,2.21289zm8.90918,13.53223l-2.40082,-2.71387c0.06098,0.00037 0.11524,0.00147 0.17963,0.00147c1.34515,0 3.40631,-0.09845 5.13788,-0.5846l-2.91669,3.297zm5.01758,-5.87646c-0.34119,1.25464 -2.69885,1.85846 -5.12647,2.07116c-0.24603,-0.92016 -0.99975,-2.93982 -2.89111,-2.93982c-1.16638,0 -1.83502,0.51752 -2.17249,0.89814l-1.78399,-2.01661c0.44281,0.07825 0.92779,0.11847 1.45111,0.11847c0.00195,0 0.00391,0 0.00586,0c7.69336,-0.01171 9.92383,0.79932 10.43994,1.47461c0.09668,0.12598 0.11914,0.24024 0.07715,0.39405zm3.63214,-3.90113c-1.08942,-1.96258 -4.19592,-1.96753 -8.64972,-1.96753c-3,0 -3,-1.01318 -3,-1.5c0,-1.13525 0.521,-2.49023 3.00195,-2.5l0.07422,0c3.99072,0.01563 4.9126,2.55176 4.94922,2.65723c0.06787,0.20459 0.25928,0.34277 0.47461,0.34277l3,0c0.27637,0 0.5,-0.22363 0.5,-0.5l0,-1.49993l1.85547,2.47406l-2.20575,2.4934z"/>
 </g>
</svg>