<svg width="23.999999999999996" height="23.999999999999996" xmlns="http://www.w3.org/2000/svg">

 <g>
  <title>background</title>
  <rect fill="none" id="canvas_background" height="402" width="582" y="-1" x="-1"/>
 </g>
 <g>
  <title>Layer 1</title>
  <circle id="svg_2" r="2" fill="#ffffff" cy="12" cx="12"/>
  <path id="svg_3" fill="#ffffff" d="m20.35622,11.99384c0.6531,-0.67298 1.19957,-1.34388 1.62434,-1.99762c0.00659,0.00012 0.01209,0.00378 0.01874,0.00378c0.55172,0 0.99993,-0.44873 0.99993,-1c0,-0.23511 -0.09369,-0.44226 -0.22997,-0.61316c0.31065,-0.94824 0.29106,-1.7713 -0.10009,-2.43469c-0.88116,-1.49518 -3.40949,-1.79096 -6.6094,-1.01978c-0.9002,-3.00329 -2.3672,-4.93237 -4.05977,-4.93237c-1.69263,0 -3.15969,1.92926 -4.0599,4.9328c-0.71497,-0.17419 -1.39925,-0.29529 -2.04538,-0.36169c-0.16167,-0.33484 -0.49783,-0.57111 -0.89423,-0.57111c-0.3909,0 -0.72126,0.23108 -0.88568,0.55841c-1.34079,0.125 -2.31179,0.59119 -2.78398,1.39374c-0.35935,0.60889 -0.42575,1.34619 -0.20018,2.19092c0.31626,1.18017 1.20627,2.51593 2.50714,3.85693c-1.30087,1.341 -2.19088,2.67676 -2.50714,3.85693c-0.22557,0.84473 -0.15917,1.58203 0.20018,2.19092c0.57027,0.96778 1.82897,1.43555 3.5144,1.43555c0.91735,0 1.96477,-0.14429 3.09219,-0.4159c0.12432,0.41608 0.26182,0.81116 0.40921,1.18982c-0.20842,0.18341 -0.34635,0.44397 -0.34635,0.74268c0,0.55127 0.44821,1 0.99993,1c0.06103,0 0.11413,-0.02435 0.17217,-0.03485c0.8194,1.32873 1.789,2.03485 2.82762,2.03485c1.69263,0 3.15987,-1.92932 4.06002,-4.93298c1.12852,0.27203 2.1766,0.41638 3.09475,0.41638c1.68543,-0.00049 2.94413,-0.46777 3.5144,-1.43555c0.35935,-0.60889 0.42575,-1.34619 0.20018,-2.19092c-0.31675,-1.182 -1.20902,-2.52008 -2.51313,-3.86309zm-1.17263,-6.47724c1.32715,0 2.26172,0.32715 2.625,0.94336c0.23285,0.39618 0.23438,0.92877 0.03119,1.57245c-0.47253,0.07959 -0.83978,0.47308 -0.83978,0.96759c0,0.17249 0.05542,0.3269 0.13257,0.46869c-0.38861,0.59619 -0.88965,1.20978 -1.48822,1.82751c-0.81653,-0.75769 -1.75562,-1.50842 -2.79462,-2.2254c-0.1145,-1.13257 -0.29303,-2.19586 -0.52832,-3.16955c1.0744,-0.25696 2.04443,-0.38465 2.86218,-0.38465zm-5.11621,9.9751c-0.70123,0.39685 -1.39203,0.75018 -2.0675,1.06482c-0.67542,-0.3147 -1.36609,-0.66797 -2.06726,-1.06482c-0.63678,-0.36029 -1.24738,-0.74011 -1.83252,-1.13068c-0.06513,-0.77057 -0.1001,-1.56115 -0.1001,-2.36102c0,-0.81964 0.03418,-1.60724 0.09692,-2.35889c0.58612,-0.39129 1.19776,-0.77185 1.8357,-1.13281c0.70471,-0.39874 1.39465,-0.7428 2.0733,-1.05859c0.68622,0.32025 1.3761,0.67077 2.06146,1.05859c0.63794,0.36096 1.24958,0.74152 1.8357,1.13281c0.06274,0.75165 0.09692,1.53925 0.09692,2.35889c0,0.81744 -0.03394,1.60315 -0.09631,2.35297c-0.58869,0.39282 -1.19696,0.77691 -1.83631,1.13873zm1.693,0.15192c-0.10553,0.7832 -0.24396,1.5144 -0.4076,2.19329c-0.68396,-0.20233 -1.39959,-0.45056 -2.14392,-0.7536c0.44806,-0.22528 0.89887,-0.46582 1.35071,-0.72149c0.40979,-0.23188 0.80951,-0.47248 1.20081,-0.7182zm-4.96936,1.43963c-0.74427,0.30292 -1.45997,0.55109 -2.14393,0.75336c-0.16503,-0.69257 -0.30102,-1.42584 -0.40417,-2.19208c0.38977,0.24433 0.78693,0.48499 1.19751,0.71729c0.45178,0.25567 0.90259,0.49615 1.35059,0.72143zm-3.74189,-3.45569c-0.72235,-0.53222 -1.38403,-1.07928 -1.97863,-1.62756c0.5946,-0.54828 1.25622,-1.09528 1.97857,-1.6275c-0.02893,0.53271 -0.04907,1.07281 -0.04907,1.6275c0,0.55127 0.02014,1.09229 0.04913,1.62756zm1.19031,-5.26989c0.1059,-0.78601 0.24494,-1.51972 0.40924,-2.20069c0.69745,0.20838 1.41608,0.4624 2.14758,0.76154c-0.45007,0.22626 -0.90197,0.46264 -1.35583,0.71966c-0.4118,0.23297 -0.81012,0.47443 -1.20099,0.71949zm4.97302,-1.43488c0.74207,-0.30176 1.45868,-0.55633 2.14075,-0.758c0.16351,0.67878 0.30188,1.40986 0.40735,2.19288c-0.39087,-0.24506 -0.78919,-0.48652 -1.20099,-0.71949c-0.44733,-0.25311 -0.89709,-0.48932 -1.34711,-0.71539zm3.73847,3.44965c0.7207,0.531 1.38092,1.07672 1.97455,1.62378c-0.5943,0.54919 -1.25531,1.09246 -1.974,1.62225c0.02862,-0.52979 0.04852,-1.06696 0.04852,-1.61847c0,-0.55469 -0.02014,-1.09485 -0.04907,-1.62756zm-4.95093,-9.37244c1.11481,0 2.30157,1.57776 3.091,4.1933c-0.98803,0.29193 -2.02606,0.67859 -3.091,1.1546c-1.05212,-0.46991 -2.09143,-0.85724 -3.091,-1.1546c0.78943,-2.6156 1.97619,-4.1933 3.091,-4.1933zm-9.80859,5.45947c0.36798,-0.62426 1.22503,-0.85071 1.98736,-0.92224c0.17884,0.27197 0.4718,0.46277 0.82123,0.46277c0.33685,0 0.62042,-0.17816 0.8017,-0.43384c0.59289,0.06122 1.22058,0.17096 1.87817,0.32996c-0.2359,0.9751 -0.41492,2.0401 -0.5296,3.17468c-1.04108,0.71838 -1.98169,1.4707 -2.79938,2.22992c-1.17712,-1.21039 -1.9823,-2.3985 -2.25519,-3.41644c-0.15429,-0.57617 -0.12207,-1.05518 0.09571,-1.42481zm0,11.08057c-0.21778,-0.36914 -0.25,-0.84815 -0.09571,-1.42432c0.27289,-1.01794 1.07807,-2.20605 2.25519,-3.41644c0.81763,0.75922 1.7583,1.51147 2.79926,2.2298c0.11273,1.11773 0.28857,2.18145 0.52618,3.16723c-2.81689,0.67255 -4.89954,0.43781 -5.48492,-0.55627zm9.80859,5.45996c-0.69452,0 -1.42047,-0.60492 -2.06097,-1.69867c0.03112,-0.09662 0.06097,-0.19452 0.06097,-0.30133c0,-0.42999 -0.27582,-0.78979 -0.65765,-0.93073c-0.15943,-0.39385 -0.30365,-0.81982 -0.43677,-1.26617c0.99023,-0.29236 2.02685,-0.67181 3.09442,-1.14899c1.06683,0.47681 2.10272,0.85621 3.09222,1.14844c-0.78942,2.61804 -1.97686,4.19745 -3.09222,4.19745zm9.80859,-5.45996c-0.58661,0.99481 -2.66955,1.22943 -5.48657,0.55633c0.23554,-0.97509 0.41406,-2.0401 0.52844,-3.17443c1.0337,-0.71515 1.9693,-1.46766 2.79065,-2.23072c1.1814,1.21314 1.98969,2.4043 2.26319,3.4245c0.15429,0.57617 0.12207,1.05518 -0.09571,1.42432z"/>
 </g>
</svg>