<svg width="24" height="24" xmlns="http://www.w3.org/2000/svg">

 <g>
  <title>background</title>
  <rect fill="none" id="canvas_background" height="402" width="582" y="-1" x="-1"/>
 </g>
 <g>
  <title>Layer 1</title>
  <path id="svg_2" fill="#ffffff" d="m21.7627,15.07471c-0.14747,-0.09229 -0.33204,-0.09961 -0.48633,-0.02198l-4.27637,2.13819l0,-9.69092l0,-7c0,-0.27637 -0.22363,-0.5 -0.5,-0.5l-3,0c-0.27637,0 -0.5,0.22363 -0.5,0.5l0,7c0,0.27637 0.22363,0.5 0.5,0.5l1.55542,0l-1.33667,1.05127c-0.17041,0.13428 -0.23535,0.36279 -0.16016,0.56641l0.54346,1.47021l-0.40674,-0.17285c-0.15381,-0.06592 -0.33203,-0.04932 -0.47119,0.04346c-0.14014,0.09277 -0.22412,0.24902 -0.22412,0.41699l0,12.12451c0,0.17334 0.08984,0.33398 0.2373,0.42529c0.08008,0.04981 0.17139,0.07471 0.2627,0.07471c0.07666,0 0.15283,-0.01758 0.22363,-0.05273l8,-4c0.16944,-0.08497 0.27637,-0.25782 0.27637,-0.44727l0,-4c0,-0.17334 -0.08984,-0.33398 -0.2373,-0.42529z"/>
  <path id="svg_3" fill="#ffffff" d="m11.5,0l-7,0c-0.16064,0 -0.31152,0.07715 -0.40576,0.20752c-0.09375,0.13037 -0.11963,0.29834 -0.06836,0.45068l1,3c0.06787,0.2041 0.25879,0.3418 0.47412,0.3418l2.5,0l0,3.5l0,8.5l-2,0l0,-4.5c0,-0.18457 -0.10156,-0.354 -0.26416,-0.44092c-0.16162,-0.08691 -0.35938,-0.07715 -0.51318,0.0249l-3,2c-0.13916,0.09278 -0.22266,0.24903 -0.22266,0.41602l0,5.5c0,1.10303 0.89697,2 2,2l6,0c1.10303,0 2,-0.89697 2,-2l0,-7.62451c0,-0.16797 -0.08398,-0.32422 -0.22412,-0.41699c-0.14063,-0.09278 -0.31885,-0.10938 -0.47119,-0.04346l-0.40674,0.17285l0.54346,-1.47021c0.07519,-0.20362 0.01025,-0.43213 -0.16016,-0.56641l-1.33667,-1.05127l1.55542,0c0.27637,0 0.5,-0.22363 0.5,-0.5l0,-7c0,-0.27637 -0.22363,-0.5 -0.5,-0.5z"/>
 </g>
</svg>